<svg xmlns="http://www.w3.org/2000/svg" width="75.173" height="75.173" viewBox="0 0 75.173 75.173"><path d="M69.175,18.394a1.2,1.2,0,0,0,1.2-1.2V12h3.6a1.2,1.2,0,0,0,1.2-1.2V1.2a1.2,1.2,0,0,0-1.2-1.2h-9.6a1.2,1.2,0,0,0-1.2,1.2V4.8H12V1.2A1.2,1.2,0,0,0,10.8,0H1.2A1.2,1.2,0,0,0,0,1.2v9.6A1.2,1.2,0,0,0,1.2,12H4.8V63.177H1.2a1.2,1.2,0,0,0-1.2,1.2v9.6a1.2,1.2,0,0,0,1.2,1.2h9.6a1.2,1.2,0,0,0,1.2-1.2v-3.6H63.178v3.6a1.2,1.2,0,0,0,1.2,1.2h9.6a1.2,1.2,0,0,0,1.2-1.2v-9.6a1.2,1.2,0,0,0-1.2-1.2h-3.6V21.993a1.2,1.2,0,1,0-2.4,0V63.177h-3.6a1.2,1.2,0,0,0-1.2,1.2v3.6H12v-3.6a1.2,1.2,0,0,0-1.2-1.2H7.2V12h3.6A1.2,1.2,0,0,0,12,10.8V7.2H63.178v3.6a1.2,1.2,0,0,0,1.2,1.2h3.6v5.2A1.2,1.2,0,0,0,69.175,18.394Zm-3.6,47.182h7.2v7.2h-7.2ZM9.6,72.774H2.4v-7.2H9.6ZM9.6,9.6H2.4V2.4H9.6Zm55.98-7.2h7.2V9.6h-7.2Z" fill="#fff"/><path d="M143.185,101.2a1.2,1.2,0,0,0-1.2-1.2H101.2a1.2,1.2,0,0,0-1.2,1.2V121.6a1.2,1.2,0,0,0,1.2,1.2h40.785a1.2,1.2,0,0,0,1.2-1.2ZM102.4,103.145,118.91,111.4,102.4,119.655Zm3.882-.741H136.9l-15.311,7.655Zm15.311,10.337L136.9,120.4H106.281Zm2.682-1.341,16.511-8.255v16.51Z" transform="translate(-84.006 -84.01)" fill="#fff"/><path d="M119.193,355H101.2a1.2,1.2,0,1,0,0,2.4h17.994a1.2,1.2,0,1,0,0-2.4Z" transform="translate(-84.006 -298.22)" fill="#fff"/><path d="M261.693,355H243.7a1.2,1.2,0,1,0,0,2.4h17.994a1.2,1.2,0,1,0,0-2.4Z" transform="translate(-203.714 -298.22)" fill="#fff"/><path d="M119.193,323.125H101.2a1.2,1.2,0,0,0,0,2.4h17.994a1.2,1.2,0,0,0,0-2.4Z" transform="translate(-84.006 -271.443)" fill="#fff"/><path d="M261.693,323.125H243.7a1.2,1.2,0,0,0,0,2.4h17.994a1.2,1.2,0,0,0,0-2.4Z" transform="translate(-203.714 -271.443)" fill="#fff"/><path d="M119.193,291.25H101.2a1.2,1.2,0,1,0,0,2.4h17.994a1.2,1.2,0,1,0,0-2.4Z" transform="translate(-84.006 -244.667)" fill="#fff"/><path d="M261.693,291.25H243.7a1.2,1.2,0,1,0,0,2.4h17.994a1.2,1.2,0,1,0,0-2.4Z" transform="translate(-203.714 -244.667)" fill="#fff"/><path d="M141.985,259.374H101.2a1.2,1.2,0,1,0,0,2.4h40.785a1.2,1.2,0,1,0,0-2.4Z" transform="translate(-84.006 -217.889)" fill="#fff"/></svg>