<svg xmlns="http://www.w3.org/2000/svg" xmlns:xlink="http://www.w3.org/1999/xlink" width="722.499" height="503.99" viewBox="0 0 722.499 503.99"><defs><linearGradient id="a" x1="0.5" y1="1" x2="0.5" gradientUnits="objectBoundingBox"><stop offset="0" stop-color="gray" stop-opacity="0.251"/><stop offset="0.54" stop-color="gray" stop-opacity="0.122"/><stop offset="1" stop-color="gray" stop-opacity="0.102"/></linearGradient></defs><g transform="translate(0)"><path d="M721.134,350.9c-25.106,34.449-16.821,83.622-2.309,122.8,4.861,13.114,10.382,26.985,7.862,41.253-3.078,17.443-17.545,30.512-32.583,37.63-27.414,12.973-59.8,10.9-84.321-5.444-21.162-14.108-36.059-37.553-57.631-50.988-36.1-22.477-82.974-12.434-123.157,4.726-28.428,12.139-59.568,27.774-87.271,16.564-19.495-7.888-32.622-27.966-39.528-49.429-3.335-10.363-5.669-21.611-12.312-29.723-3.95-4.822-9.17-8.183-14.538-10.991-48.987-25.651-112-9.619-159.491-38.239-32.064-19.328-52.02-56.836-60.312-96.268s-6.24-81.057-2.937-121.97c2.347-29.075,6.06-60.145,23.541-82.994,18.488-24.163,49.474-33.77,77.184-29.98s52.546,19.2,74.285,37.54c27.171,22.926,52.187,51.7,86,60.4,23.028,5.925,47.493,1.731,71.432-.122,40.016-3.091,79.89.468,119.521,4.489,37.938,3.848,76.138,8.144,112.069,20.758,25.427,8.927,45.582,25.8,69.521,37.329,15.6,7.516,32.769,9.26,47.454,18.969,18.122,11.96,34.5,33.147,29.184,58.574C757.777,319.937,734.46,332.615,721.134,350.9Z" transform="translate(-41.316 -57.041)" fill="#6c63ff" opacity="0.1"/><rect width="131.756" height="88.521" rx="9.61" transform="translate(244.143 101.911)" fill="#474059"/><rect width="125.933" height="72.316" transform="translate(246.914 112.248)" fill="#fff"/><ellipse cx="1.109" cy="1.199" rx="1.109" ry="1.199" transform="translate(308.771 107.31)" fill="#fff"/><rect width="23.086" height="24.368" transform="translate(298.132 187.226)" fill="#474059"/><path d="M459.688,326.95H487.9a3.848,3.848,0,0,1,3.848,3.848H455.84a3.848,3.848,0,0,1,3.848-3.848Z" transform="translate(-163.479 -117.28)" fill="#474059"/><rect width="94.909" height="32.705" transform="translate(149.356 230.191)" fill="#c0bccf"/><rect width="20.521" height="178.274" transform="translate(536.686 214.159)" fill="#c0bccf"/><rect width="94.909" height="1.924" transform="translate(149.356 230.191)" opacity="0.1"/><rect width="20.521" height="17.956" transform="translate(536.686 214.159)" opacity="0.1"/><rect width="94.909" height="32.705" transform="translate(149.356 261.614)" fill="#c0bccf"/><circle cx="5.771" cy="5.771" r="5.771" transform="translate(191.039 271.874)" fill="#6c63ff"/><circle cx="5.771" cy="5.771" r="5.771" transform="translate(191.039 240.452)" fill="#6c63ff"/><rect width="94.909" height="32.705" transform="translate(149.356 294.319)" fill="#c0bccf"/><circle cx="5.771" cy="5.771" r="5.771" transform="translate(191.039 303.938)" fill="#6c63ff"/><rect width="94.909" height="32.705" transform="translate(149.356 327.024)" fill="#c0bccf"/><circle cx="5.771" cy="5.771" r="5.771" transform="translate(191.039 336.643)" fill="#6c63ff"/><rect width="94.909" height="32.705" transform="translate(149.356 359.729)" fill="#c0bccf"/><circle cx="5.771" cy="5.771" r="5.771" transform="translate(191.039 369.348)" fill="#6c63ff"/><rect width="94.909" height="2.565" transform="translate(149.356 292.395)" opacity="0.1"/><rect width="94.909" height="2.565" transform="translate(149.356 260.331)" opacity="0.1"/><rect width="94.909" height="2.565" transform="translate(149.356 325.1)" opacity="0.1"/><rect width="94.909" height="2.565" transform="translate(149.356 357.805)" opacity="0.1"/><path d="M152.925,530.753s-2.116-62.691-36.033-98.115A95.028,95.028,0,0,1,90.83,378.463a159.846,159.846,0,0,1-.8-29.223" transform="translate(-55.659 -161.86)" fill="none" stroke="#535461" stroke-miterlimit="10" stroke-width="2"/><path d="M56.708,304.433c2.321,7,21.726,23.086,21.726,23.086s5.945-24.5,3.623-31.5a13.354,13.354,0,0,0-25.35,8.407Z" transform="translate(-43.578 -139.485)" fill="#6c63ff"/><path d="M41.652,372.255c5.771,4.617,30.781,7.58,30.781,7.58s-8.337-23.8-14.108-28.408a13.355,13.355,0,1,0-16.712,20.835Z" transform="translate(-36.614 -161.591)" fill="#6c63ff"/><path d="M73.791,473.539c7.3,1.077,30.4-8.978,30.4-8.978S84.988,448.2,77.7,447.119a13.354,13.354,0,1,0-3.905,26.421Z" transform="translate(-45.86 -196.92)" fill="#6c63ff"/><path d="M119.535,545.57c7.009,2.3,31.487-3.732,31.487-3.732s-16.167-19.347-23.176-21.643a13.355,13.355,0,0,0-8.337,25.375Z" transform="translate(-63.054 -222.946)" fill="#6c63ff"/><path d="M120.32,374.8c-3.405,6.541-25.119,19.354-25.119,19.354s-1.975-25.132,1.43-31.679A13.352,13.352,0,1,1,120.32,374.8Z" transform="translate(-57.427 -164.029)" fill="#6c63ff"/><path d="M169.055,457.536c-5.207,5.226-29.755,10.947-29.755,10.947s5.637-24.574,10.838-29.8a13.352,13.352,0,1,1,18.918,18.847Z" transform="translate(-73.45 -192.537)" fill="#6c63ff"/><path d="M208.629,547.3c-4.245,6.028-27.479,15.82-27.479,15.82s1.4-25.17,5.65-31.2a13.351,13.351,0,1,1,21.8,15.391Z" transform="translate(-88.463 -225.232)" fill="#6c63ff"/><path d="M176.67,536.288s19.238-27.985,15.865-54.316A51.456,51.456,0,0,1,198.614,450a86.572,86.572,0,0,1,9.048-13" transform="translate(-86.856 -193.342)" fill="none" stroke="#535461" stroke-miterlimit="10" stroke-width="2"/><path d="M221.684,408.354c-1.238,3.8,2.033,17.045,2.033,17.045s10.472-8.76,11.71-12.55a7.229,7.229,0,0,0-13.743-4.489Z" transform="translate(-102.903 -181.28)" fill="#6c63ff"/><path d="M193.274,433.039c1.02,3.848,10.972,13.2,10.972,13.2s4.027-13.044,3.008-16.9a7.231,7.231,0,1,0-13.98,3.7Z" transform="translate(-92.725 -188.663)" fill="#6c63ff"/><path d="M174.676,487.482c2.828,2.815,16.134,5.861,16.134,5.861s-3.1-13.294-5.938-16.109a7.233,7.233,0,1,0-10.2,10.26Z" transform="translate(-85.375 -207.021)" fill="#6c63ff"/><path d="M171.442,533.613c2.315,3.251,14.916,8.5,14.916,8.5s-.814-13.627-3.129-16.878a7.23,7.23,0,0,0-11.787,8.375Z" transform="translate(-84.501 -223.904)" fill="#6c63ff"/><path d="M223.04,459.554c-3.585,1.757-17.16.346-17.16.346s7.221-11.581,10.812-13.313a7.229,7.229,0,1,1,6.355,12.986Z" transform="translate(-97.334 -196.517)" fill="#6c63ff"/><path d="M218.455,512.422c-3.95.6-16.455-4.777-16.455-4.777s10.357-8.888,14.307-9.491a7.229,7.229,0,1,1,2.174,14.294Z" transform="translate(-95.942 -215.25)" fill="#6c63ff"/><path d="M206.168,563.65c-3.79,1.283-17.058-1.924-17.058-1.924s8.709-10.51,12.5-11.774a7.23,7.23,0,0,1,4.559,13.723Z" transform="translate(-91.318 -233.728)" fill="#6c63ff"/><path d="M221.684,408.354c-1.238,3.8,2.033,17.045,2.033,17.045s10.472-8.76,11.71-12.55a7.229,7.229,0,0,0-13.743-4.489Z" transform="translate(-102.903 -181.28)" fill="#fff" opacity="0.5"/><path d="M193.274,433.039c1.02,3.848,10.972,13.2,10.972,13.2s4.027-13.044,3.008-16.9a7.231,7.231,0,1,0-13.98,3.7Z" transform="translate(-92.725 -188.663)" fill="#fff" opacity="0.5"/><path d="M174.676,487.482c2.828,2.815,16.134,5.861,16.134,5.861s-3.1-13.294-5.938-16.109a7.233,7.233,0,1,0-10.2,10.26Z" transform="translate(-85.375 -207.021)" fill="#fff" opacity="0.5"/><path d="M171.442,533.613c2.315,3.251,14.916,8.5,14.916,8.5s-.814-13.627-3.129-16.878a7.23,7.23,0,0,0-11.787,8.375Z" transform="translate(-84.501 -223.904)" fill="#fff" opacity="0.5"/><path d="M223.04,459.554c-3.585,1.757-17.16.346-17.16.346s7.221-11.581,10.812-13.313a7.229,7.229,0,1,1,6.355,12.986Z" transform="translate(-97.334 -196.517)" fill="#fff" opacity="0.5"/><path d="M218.455,512.422c-3.95.6-16.455-4.777-16.455-4.777s10.357-8.888,14.307-9.491a7.229,7.229,0,1,1,2.174,14.294Z" transform="translate(-95.942 -215.25)" fill="#fff" opacity="0.5"/><path d="M206.168,563.65c-3.79,1.283-17.058-1.924-17.058-1.924s8.709-10.51,12.5-11.774a7.23,7.23,0,0,1,4.559,13.723Z" transform="translate(-91.318 -233.728)" fill="#fff" opacity="0.5"/><path d="M157.238,606.429h-54.72L88.84,522.98h82.083Z" transform="translate(-31.827 -187.601)" fill="#474059"/><path d="M167.594,522.98l-12.781,77.979H108.77l.9,5.47h54.72l13.685-83.449Z" transform="translate(-38.976 -187.601)" opacity="0.1"/><rect width="412.339" height="19.238" transform="translate(147.433 211.594)" fill="#c0bccf"/><rect width="58.997" height="62.351" transform="translate(250.037 117.25)" fill="#e8eaf1"/><rect width="56.432" height="59.639" transform="translate(251.319 118.609)" fill="#fff"/><rect width="46.172" height="1.924" transform="translate(321.218 121.174)" fill="#e8eaf1"/><rect width="47.454" height="8.978" transform="translate(256.449 123.098)" fill="#e8eaf1"/><rect width="47.454" height="8.978" transform="translate(256.449 135.924)" fill="#e8eaf1"/><rect width="31.422" height="3.848" transform="translate(256.449 164.14)" fill="#e8eaf1"/><rect width="31.422" height="3.848" transform="translate(256.449 171.835)" fill="#e8eaf1"/><rect width="14.749" height="8.978" transform="translate(256.449 150.032)" fill="#e8eaf1"/><rect width="13.467" height="8.978" transform="translate(274.405 150.032)" fill="#e8eaf1"/><rect width="13.467" height="8.978" transform="translate(290.437 150.032)" fill="#e8eaf1"/><rect width="13.467" height="14.108" transform="translate(290.437 162.216)" fill="#e8eaf1"/><rect width="46.172" height="1.924" transform="translate(321.218 126.305)" fill="#e8eaf1"/><rect width="46.172" height="1.924" transform="translate(321.218 131.435)" fill="#e8eaf1"/><rect width="46.172" height="1.924" transform="translate(321.218 136.565)" fill="#e8eaf1"/><rect width="46.172" height="1.924" transform="translate(321.218 141.695)" fill="#e8eaf1"/><rect width="46.172" height="1.924" transform="translate(321.218 146.825)" fill="#e8eaf1"/><rect width="46.172" height="1.924" transform="translate(321.218 151.956)" fill="#e8eaf1"/><rect width="46.172" height="1.924" transform="translate(321.218 157.086)" fill="#e8eaf1"/><rect width="46.172" height="1.924" transform="translate(321.218 162.216)" fill="#e8eaf1"/><rect width="46.172" height="1.924" transform="translate(321.218 167.346)" fill="#e8eaf1"/><rect width="46.172" height="1.924" transform="translate(321.218 172.476)" fill="#e8eaf1"/><path d="M691.688,371.352a46.813,46.813,0,0,0,2.732-28.107,239.83,239.83,0,0,1-4.572-34.148c-.731-11-2.334-18.122-4.085-22.74h0s.673-14.967-9.465-22.772-33.8-20.168-33.8-20.168l2.366-9.664h-.1a9.286,9.286,0,0,0,2.033-.93,8.825,8.825,0,0,0,1.828-1.52c4-3.5,4.059-9.927,5.957-15.044,1.462-3.937,4.2-7.311,6.163-11.043,3.572-6.8,4.406-15.14,1.084-22.053s-11.19-11.883-19.046-10.991a34.225,34.225,0,0,0-7.413,1.994c-5.688,2-10.177-3.662-15.865-1.654-2.854,1.007-13.505,2.1-15.814,5.028a2.629,2.629,0,0,0-1.09,1.475c-.6,2.847,4.611,8.548,8.478,13.1a20.866,20.866,0,0,0-4.758,13.249q0,.164,0,.327v.327a21,21,0,0,0,6.381,15.025c-.327,2.86-.814,6.079-1.513,9.375h-.468s-2.706,11.71-11.492,11.71c-2.347,0-5.553-.141-8.978-.34a93.871,93.871,0,0,0-30.672,3.533c-3.424.955-7.2,1.039-10.35-1.238-7.541-5.444-15.66-19.309-16.769-21.239.846-5.624.731-15.923-10.947-17.8-13.691-2.193-12.941,13.672-5.066,23.766a6.284,6.284,0,0,0-.385,1.565c-.673,8.458,7.439,24.073,9.465,26.023s2.078,14.307,16.25,17.584,24.368,4.553,25.01,20.822,14.2,33.18,7.439,52.052c-4.059,11.325-3,17.257-1.507,20.187-.122.385-.237.763-.366,1.154-1.539,4.675-3.45,9.369-5.566,12.184-.487.641-.962,1.334-1.417,2.052-5.5,3.565-11.248,7.554-13.467,9.985-4.733,5.207-2.706,26.023,0,34.481s19.6,59.857,19.6,59.857h.641l.205,1.283.68,4.258a6.347,6.347,0,0,1-.641-.4,1.1,1.1,0,0,0-1.622.436l-3.3,7.375s-13.518-5.842-14.211,7.824V509.1c-.032,7.266,3.969,9.972,7.4,10.947a28.286,28.286,0,0,1,8.811,4.091c3.251,2.334,8.2,4.72,13.832,3.424a13.675,13.675,0,0,1,3.469-.321c2.43.071,6.541-.641,6.413-6.066a10.48,10.48,0,0,0,0-1.283s-2.854-10.985-2.976-16.032a3.752,3.752,0,0,1,.269-1.5,10.726,10.726,0,0,0,.6-4.534,47.591,47.591,0,0,0-.251-4.89.757.757,0,0,0-1.378-.318l-.109.147c-.436-1.443-.943-3.129-1.417-4.72l-.391-1.283h.911s-5.419-31.942-3.392-34.507c1.327-1.7-.814-22.034-2.456-35.911,16.468,1.045,42.715-1.866,60.671-2.764a22.983,22.983,0,0,0,9.805-2.732c-1.622,13.159-4.636,39.458-3.123,41.4,2.026,2.6-3.38,34.481-3.38,34.481h.814l-.295.975h.1c-.5,1.687-1.045,3.5-1.513,5.047l-.109-.147a.757.757,0,0,0-1.379.327,47.525,47.525,0,0,0-.25,4.88,11.622,11.622,0,0,0,.6,4.534,3.745,3.745,0,0,1,.269,1.5c-.122,5.079-2.976,16.032-2.976,16.032a10.529,10.529,0,0,0,0,1.283c-.135,5.451,3.976,6.143,6.413,6.066a13.677,13.677,0,0,1,3.469.321c5.63,1.283,10.581-1.1,13.832-3.424a28.287,28.287,0,0,1,8.811-4.091c3.431-.975,7.432-3.681,7.4-10.947v-1.565c-.712-13.653-14.23-7.811-14.23-7.811l-3.322-7.4a1.1,1.1,0,0,0-1.622-.436,6.321,6.321,0,0,1-.641.4l.891-5.56h.641s16.9-51.4,19.6-59.857,4.733-29.281,0-34.481c-2.238-2.462-8.093-6.515-13.653-10.113a126.763,126.763,0,0,1,13.653,9.465ZM662.5,377.874l-2.148-1.283a10.21,10.21,0,0,0-1.622-2.11,17.1,17.1,0,0,1-1.655-1.86c-1.321-4-6.2-20.521.308-29.043,4.726-6.208,5.085-18.2,4.713-26.113,3.206,15.718,7.7,37.835,8.131,42.375C670.757,365.51,664.947,374.43,662.5,377.874Z" transform="translate(-206.721 -98.304)" fill="url(#a)"/><path d="M733.956,654.862l-2.565,16.673L716,668.329s3.206-10.9,3.848-13.467.641,0,.641,0Z" transform="translate(-280.327 -271.086)" fill="#d6e6f9"/><path d="M625.956,668.329l-15.391,3.206-1.776-11.543-.789-5.13h13.467s0-2.565.641,0c.231.923.8,2.937,1.43,5.13C624.673,663.879,625.956,668.329,625.956,668.329Z" transform="translate(-241.585 -271.086)" fill="#d6e6f9"/><path d="M623.558,659.992H608.809l-.789-5.13h13.467s0-2.565.641,0C622.359,655.786,622.923,657.8,623.558,659.992Z" transform="translate(-241.592 -271.086)" opacity="0.1"/><path d="M719.79,659.492h14.749l.789-5.13H721.849s0-2.565-.641,0C720.989,655.286,720.425,657.3,719.79,659.492Z" transform="translate(-281.687 -270.907)" opacity="0.1"/><path d="M756.238,340.5s8.337.641,10.26,30.781a245.09,245.09,0,0,0,4.367,33.667,47.8,47.8,0,0,1-2.565,27.677l-8.215,20.1S744.7,439.9,739.565,440.539c0,0,8.978-12.184,8.337-19.238S737,363.586,737,363.586Z" transform="translate(-287.861 -158.725)" fill="#d6e6f9"/><path d="M601.862,489.5s-19.88,12.184-24.368,17.314-2.565,25.651,0,33.988,18.6,59,18.6,59h16.032s-5.13-31.422-3.206-33.988-3.848-48.1-3.848-48.1Z" transform="translate(-229.676 -212.175)" fill="#5f546f"/><path d="M729.26,489.5s19.88,12.184,24.368,17.314,2.565,25.651,0,33.988-18.6,59-18.6,59H719s5.13-31.422,3.206-33.988,3.848-48.1,3.848-48.1Z" transform="translate(-281.404 -212.175)" fill="#5f546f"/><path d="M601.862,489.5s-19.88,12.184-24.368,17.314-2.565,25.651,0,33.988,18.6,59,18.6,59h16.032s-5.13-31.422-3.206-33.988-3.848-48.1-3.848-48.1Z" transform="translate(-229.676 -212.175)" opacity="0.1"/><path d="M729.26,489.5s19.88,12.184,24.368,17.314,2.565,25.651,0,33.988-18.6,59-18.6,59H719s5.13-31.422,3.206-33.988,3.848-48.1,3.848-48.1Z" transform="translate(-281.404 -212.175)" opacity="0.1"/><path d="M664.375,233.949s0,25.01-8.978,37.835,41.042,1.924,41.042,1.924a13.32,13.32,0,0,1-4.81-6.733c-2.642-9.408-3.642-25.978.321-33.026C697.721,223.689,664.375,233.949,664.375,233.949Z" transform="translate(-258.201 -118.867)" fill="#ffced8"/><circle cx="21.162" cy="21.162" r="21.162" transform="translate(399.453 89.752)" opacity="0.1"/><circle cx="21.162" cy="21.162" r="21.162" transform="translate(399.453 89.111)" fill="#ffced8"/><path d="M675.328,543.045c-22.938,1.013-61.094,5.284-66.878-1.052-9.331-10.216-6.022-19.411-1.206-25.01,1.885-2.2,3.578-5.88,4.951-9.555.462-1.244.891-2.482,1.282-3.662,1.481-4.572,6.413-7.727,11.992-7.727h46.319c5.611,0,10.549,3.206,12,7.779a20.577,20.577,0,0,0,2.95,6,14.52,14.52,0,0,0,2.366,2.565c2.334,1.982,3.848,6.252,4.829,10.953C696.009,533.285,687.236,542.52,675.328,543.045Z" transform="translate(-239.617 -214.521)" fill="#5f546f"/><path d="M675.328,543.045c-22.938,1.013-61.094,5.284-66.878-1.052-9.331-10.216-6.022-19.411-1.206-25.01,1.885-2.2,3.578-5.88,4.951-9.555.462-1.244.891-2.482,1.282-3.662,1.481-4.572,6.413-7.727,11.992-7.727h46.319c5.611,0,10.549,3.206,12,7.779a20.577,20.577,0,0,0,2.95,6,14.52,14.52,0,0,0,2.366,2.565c2.334,1.982,3.848,6.252,4.829,10.953C696.009,533.285,687.236,542.52,675.328,543.045Z" transform="translate(-239.617 -214.521)" opacity="0.1"/><path d="M608.414,672.415c-2.007-.4-7.246-1.558-9.279-3.1a1.02,1.02,0,0,0-1.539.43l-3.142,7.317s-12.826-5.771-13.467,7.7c-.372,7.856,3.617,10.69,7.009,11.69a26.38,26.38,0,0,1,8.381,4.021c3.084,2.3,7.785,4.649,13.12,3.38a12.507,12.507,0,0,1,3.29-.321c2.392.077,6.515-.641,6.06-6.6,0,0-3.848-15.391-2.565-17.956.808-1.616.6-5.771.333-8.632a.712.712,0,0,0-1.283-.327,5.643,5.643,0,0,1-4.944,2.565A8.979,8.979,0,0,1,608.414,672.415Z" transform="translate(-231.886 -276.608)" opacity="0.1"/><path d="M608.414,673.415c-2.007-.4-7.246-1.558-9.279-3.1a1.02,1.02,0,0,0-1.539.43l-3.142,7.317s-12.826-5.771-13.467,7.7c-.372,7.856,3.617,10.69,7.009,11.69a26.381,26.381,0,0,1,8.381,4.021c3.084,2.3,7.785,4.649,13.12,3.38a12.507,12.507,0,0,1,3.29-.321c2.392.077,6.515-.641,6.06-6.6,0,0-3.848-15.391-2.565-17.956.808-1.616.6-5.771.333-8.632a.712.712,0,0,0-1.283-.327,5.643,5.643,0,0,1-4.944,2.565,8.979,8.979,0,0,1-1.975-.16Z" transform="translate(-231.886 -276.967)" fill="#bc8387"/><path d="M722.418,672.415c2.007-.4,7.246-1.558,9.279-3.1a1.02,1.02,0,0,1,1.539.43l3.123,7.317s12.825-5.771,13.467,7.7c.372,7.856-3.617,10.69-7.009,11.69a26.382,26.382,0,0,0-8.337,4.034c-3.085,2.3-7.785,4.649-13.12,3.38a12.5,12.5,0,0,0-3.29-.321c-2.392.077-6.515-.641-6.06-6.6,0,0,3.848-15.391,2.565-17.956-.808-1.616-.6-5.771-.333-8.632a.712.712,0,0,1,1.282-.327,5.643,5.643,0,0,0,4.944,2.565A8.978,8.978,0,0,0,722.418,672.415Z" transform="translate(-278.884 -276.608)" opacity="0.1"/><path d="M722.418,673.415c2.007-.4,7.246-1.558,9.279-3.1a1.02,1.02,0,0,1,1.539.43l3.123,7.317s12.825-5.771,13.467,7.7c.372,7.856-3.617,10.69-7.009,11.69a26.382,26.382,0,0,0-8.337,4.034c-3.085,2.3-7.785,4.649-13.12,3.38a12.508,12.508,0,0,0-3.29-.321c-2.392.077-6.515-.641-6.06-6.6,0,0,3.848-15.391,2.565-17.956-.808-1.616-.6-5.771-.333-8.632a.712.712,0,0,1,1.282-.327,5.643,5.643,0,0,0,4.944,2.565,8.978,8.978,0,0,0,1.95-.173Z" transform="translate(-278.884 -276.967)" fill="#bc8387"/><path d="M537.941,249.549s5.771-18.6-9.619-21.162-11.543,19.88,0,28.216S537.941,249.549,537.941,249.549Z" transform="translate(-209.361 -118.434)" fill="#ffced8"/><path d="M689.883,478.483c-17.956,29.5-78.235-3.848-78.235-3.848a6.424,6.424,0,0,1-2.418-3.335c.494-1.558.949-3.117,1.359-4.6a13.236,13.236,0,0,1,12.787-9.7h49.378a13.217,13.217,0,0,1,12.787,9.767,27.962,27.962,0,0,0,3.142,7.529C689.319,476.879,689.883,478.483,689.883,478.483Z" transform="translate(-242.026 -200.517)" opacity="0.1"/><path d="M619.6,263.189h-3.848s-2.565,11.543-10.9,11.543c-2.225,0-5.265-.135-8.535-.34a85.879,85.879,0,0,0-29.1,3.482c-3.251.943-6.823,1.026-9.818-1.218-7.7-5.771-16.032-21.162-16.032-21.162s-14.749-.641-15.391,7.7,7.054,23.727,8.978,25.651,1.924,14.108,15.391,17.314,23.086,4.489,23.727,20.521,13.467,32.7,7.054,51.3.641,22.445.641,22.445,60.28,33.346,78.235,3.848c0,0-7.054-19.88,0-29.5s3.848-33.346,3.848-33.346l23.086-23.086s.641-14.749-8.978-22.445S645.9,276.014,645.9,276.014l2.245-9.529Z" transform="translate(-212.148 -128.227)" fill="#d6e6f9"/><path d="M666.2,217.482c-.487,6.034-.3,12.922,4.168,17.019a17.826,17.826,0,0,0,8.01,3.719,51.17,51.17,0,0,0,9.241,1.366c2.847.154,5.88,0,8.272-1.52,4.9-3.161,4.784-10.19,6.746-15.686,1.385-3.886,3.989-7.2,5.848-10.9,3.386-6.695,4.181-14.922,1.026-21.733s-10.613-11.7-18.065-10.805a31.506,31.506,0,0,0-7.054,1.969c-5.4,1.975-9.651-3.61-15.051-1.635-2.95,1.077-14.672,2.264-15.391,5.771-.853,4.168,10.491,14.563,11.716,18.212C667.28,207.959,666.2,212.672,666.2,217.482Z" transform="translate(-258.054 -100.732)" opacity="0.1"/><path d="M667.2,216.482c-.487,6.034-.295,12.922,4.168,17.019a17.825,17.825,0,0,0,8.01,3.719,51.169,51.169,0,0,0,9.241,1.366c2.847.154,5.88,0,8.272-1.52,4.9-3.161,4.784-10.19,6.746-15.686,1.385-3.886,3.989-7.2,5.848-10.9,3.386-6.695,4.181-14.922,1.026-21.733s-10.613-11.7-18.065-10.805a31.507,31.507,0,0,0-7.054,1.969c-5.4,1.975-9.651-3.61-15.051-1.635-2.95,1.077-14.672,2.264-15.391,5.771-.853,4.168,10.491,14.563,11.716,18.212C668.28,206.959,667.2,211.672,667.2,216.482Z" transform="translate(-258.412 -100.373)" fill="#ae767a"/><path d="M659.52,280.49s3.848,1.61,14.749,4.816a32.387,32.387,0,0,0,19.238,0" transform="translate(-260.067 -137.198)" opacity="0.1"/><path d="M614.5,423.4s17.956,1.026,23.727,8.721,7.7,10.26,14.749,10.26,29.5,1.283,32.705,2.565" transform="translate(-243.917 -188.464)" opacity="0.1"/><rect width="10.722" height="12.255" transform="translate(408.2 429.268)" fill="#c0bccf"/><rect width="8.426" height="62.037" transform="translate(475.598 278.389)" fill="#cb919b"/><rect width="18.379" height="2.296" transform="translate(461.811 339.657)" fill="#cb919b"/><rect width="8.426" height="62.037" transform="translate(343.861 278.389)" fill="#cb919b"/><rect width="18.379" height="2.296" transform="translate(345.394 339.657)" fill="#cb919b"/><rect width="17.616" height="75.061" transform="translate(405.898 343.491)" fill="#c0bccf"/><path d="M656.489,475.484c47.454,1.655,49.019-16.526,49.019-16.526l-3.065-50.411c-.763-78.511-45.954-66.943-45.954-66.943s-45.191-11.543-45.954,66.943l-3.065,50.411S609,477.138,656.489,475.484Z" transform="translate(-241.395 -158.906)" fill="#cb919b"/><path d="M656.489,475.484c47.454,1.655,49.019-16.526,49.019-16.526l-3.065-50.411c-.763-78.511-45.954-66.943-45.954-66.943s-45.191-11.543-45.954,66.943l-3.065,50.411S609,477.138,656.489,475.484Z" transform="translate(-241.395 -158.906)" fill="#fff" opacity="0.1"/><path d="M655.777,474.1c45.261,1.578,46.717-15.756,46.717-15.756l-2.918-48.051c-.731-74.83-43.8-63.8-43.8-63.8s-43.068-11.03-43.8,63.8l-2.918,48.051S610.516,475.675,655.777,474.1Z" transform="translate(-241.965 -160.669)" fill="#cb919b"/><rect width="19.148" height="32.936" rx="9.574" transform="translate(404.372 292.94)" fill="#c0bccf"/><path d="M687.16,705.345v2.674H669.57v-2.655l1.533-.4h14.551Z" transform="translate(-263.672 -289.466)" opacity="0.1"/><path d="M571.508,731.413s-7.663-6.124,64.358-25.273h14.55s62.018,15.3,62.781,25.273h-9.19s-33.7-9.972-49.019-9.972-61.274,1.533-75.029,9.959Z" transform="translate(-228.41 -289.89)" fill="#c0bccf"/><path d="M534.937,419.77h3.238a8.337,8.337,0,0,1,8.337,8.337v3.918H526.6v-3.918a8.337,8.337,0,0,1,8.337-8.337Z" transform="translate(-188.863 -150.577)" fill="#cb919b"/><path d="M740.337,419.77h3.238a8.337,8.337,0,0,1,8.337,8.337v3.918H732v-3.918a8.337,8.337,0,0,1,8.337-8.337Z" transform="translate(-262.545 -150.577)" fill="#cb919b"/><circle cx="5.361" cy="5.361" r="5.361" transform="translate(341.566 441.523)" fill="#5a5773"/><circle cx="5.361" cy="5.361" r="5.361" transform="translate(408.2 441.523)" fill="#5a5773"/><circle cx="5.361" cy="5.361" r="5.361" transform="translate(475.598 441.523)" fill="#5a5773"/><rect width="17.616" height="3.065" transform="translate(405.898 343.491)" opacity="0.1"/><path d="M652.84,583.074h51.3l3.848-7.657c2.3-13.018-6.124-13.787-6.124-13.787H603.821s-8.426.763-6.124,13.787l3.848,7.657Z" transform="translate(-237.746 -238.05)" fill="#cb919b"/><path d="M652.84,583.074h51.3l3.848-7.657c2.3-13.018-6.124-13.787-6.124-13.787H603.821s-8.426.763-6.124,13.787l3.848,7.657Z" transform="translate(-237.746 -238.05)" fill="#fff" opacity="0.1"/><path d="M652.84,584.785h51.3l3.848-6.567c2.3-11.158-6.124-11.819-6.124-11.819H603.821s-8.426.641-6.124,11.819l3.848,6.567Z" transform="translate(-237.746 -239.761)" fill="#cb919b"/><path d="M839.534,357.135s-5.855-1.982-8.67,3.206a9.414,9.414,0,0,0,.122,9.061c1.853,3.347,5.662,7.7,12.89,7.3,6.131-.327,8.163-5,8.721-9.356a9.619,9.619,0,0,0-12.761-10.26Z" transform="translate(-321.137 -164.478)" fill="#6c63ff"/><path d="M832.243,369.691a9.414,9.414,0,0,1-.122-9.061c2.815-5.13,8.67-3.206,8.67-3.206l.3-.109a9.523,9.523,0,0,1,6.881.154,9.53,9.53,0,0,0-8.119-.776l-.3.109s-5.855-1.982-8.67,3.206a9.414,9.414,0,0,0,.122,9.061,14.069,14.069,0,0,0,6.612,6.265,14.512,14.512,0,0,1-5.374-5.643Z" transform="translate(-321.144 -164.33)" fill="#fff" opacity="0.1"/><path d="M840.3,361.34s2.167,1.706,7.445,0" transform="translate(-324.917 -166.201)" opacity="0.2"/><path d="M839.58,342s3.719,10.081,3.412,12.716l2.943-.308s-4.963-8.837-3.719-12.4Z" transform="translate(-324.659 -159.263)" fill="#6c63ff"/><path d="M839.58,342s3.719,10.081,3.412,12.716l2.943-.308s-4.963-8.837-3.719-12.4Z" transform="translate(-324.659 -159.263)" opacity="0.2"/><path d="M856.828,342.471s-5.855-2.995-8.478-.519-3.02,8.8-3.02,8.8S854.879,352.065,856.828,342.471Z" transform="translate(-326.721 -158.894)" fill="#6c63ff"/><path d="M856.828,342.471s-5.855-2.995-8.478-.519-3.02,8.8-3.02,8.8S854.879,352.065,856.828,342.471Z" transform="translate(-326.721 -158.894)" fill="#fff" opacity="0.1"/><path d="M845.33,351.589s1.539-7.343,11.5-8.279" transform="translate(-326.721 -159.733)" fill="none" stroke="#6c63ff" stroke-miterlimit="10" stroke-width="1"/></g></svg>